Coordinates
version=1
nRows=12
nColumns=24
inDegrees=yes

Units are S.I. units (second, meters, Newtons, ...)
If the header above contains a line with 'inDegrees', this indicates whether rotational values are in degrees (yes) or radians (no).

endheader
time	pelvis_tilt	pelvis_list	pelvis_rotation	pelvis_tx	pelvis_ty	pelvis_tz	hip_flexion_r	hip_adduction_r	hip_rotation_r	knee_angle_r	ankle_angle_r	subtalar_angle_r	mtp_angle_r	hip_flexion_l	hip_adduction_l	hip_rotation_l	knee_angle_l	ankle_angle_l	subtalar_angle_l	mtp_angle_l	lumbar_extension	lumbar_bending	lumbar_rotation
1.5	5.167169621155527	-2.377905829707249	-3.7382867112583966	0.5837446861296163	1.0322139687578054	0.02137593126974784	-7.2365339268321724	-0.5256271200190179	-1.9291763835369489	-34.5484062832529	8.47296555706722	-2.493162623437365e-06	6.97342122636991e-10	13.789025076368109	-1.3256399025549377	-5.191981792966185	-5.007359867294408	1.0216296897043546	-3.2457361264034995e-06	-1.3361868497969152e-15	-16.570387023050777	-1.288724024680107	1.3371937570728614
1.517	6.731742924875261	-0.9483548050895398	-2.791486031646999	0.6069427829674112	1.0543162228971623	0.012925422799372923	3.807835744080231	-5.540729602378891	-7.711283283177451	-82.25862642920698	-2.671200437514889	-8.390292297774227e-06	1.0031650956337057e-09	15.04610375966395	0.3045074145474589	-4.478328385138073	-30.946352256306326	1.2494222624761204	-3.5495179337990843e-06	-1.2099045230646652e-16	-16.090875563294592	-2.6925842174271146	-0.4919003942884057
1.533	5.85812002625902	3.6331952918623234	1.5953623706227007	0.600894013726465	1.0324798854290536	-0.021190446539252155	31.598859389807444	-9.558433189974622	-11.348908061643973	-52.75461032615513	-9.03153290099145	-7.3249277757539944e-06	5.462859898511686e-10	-19.741568478602595	7.398533960320648	3.523860835227178	-23.611023675198954	11.679923431393071	9.061001406217501e-07	8.209712173389474e-16	-14.629904672300396	-5.360593414871331	-10.43941426437438
1.55	6.400266000752531	-4.042340271247329	-5.013075606545626	0.6031871116241114	1.0525759192355042	0.012069879590558157	-1.475318256819767	-3.8480347928069065	-5.346125974911489	-98.4233773460443	2.2817181975942984	-8.936345274506777e-06	1.8731668661163608e-10	20.88549955124493	-1.6654046393310415	-6.101233452188613	-15.683389723830587	-4.678920002436035	-2.3335300628084576e-06	1.3309704214865404e-17	-15.948164097489677	-1.2946258681381515	1.2747059828371246
1.567	6.742817934916943	2.5121814832135483	0.7483485442856217	0.5871342962279638	1.0433358034625428	-0.06145388328629908	45.93533382024775	-13.931980273398555	-13.925151789024707	-86.10475794069738	-10.017495392565658	-1.0699514237669578e-05	7.175064392918703e-10	-32.935494665821906	11.225941931171981	6.634001204459739	14.883589542609037	18.408000911493893	-1.4157457809748772e-07	1.6640189047866905e-16	-15.899753133156391	-7.600885315524627	-14.279078644128552
1.583	7.094349668468376	-1.2789024658916206	-2.516799368875107	0.5996983356774841	1.051052493919672	-0.04351495059532148	27.861098300587187	-11.348518664075756	-11.234718854864154	-117.54162293785109	-8.566445075661692	-8.094818923913298e-06	-2.3633783173552867e-10	-9.39111713143881	6.427032138415271	1.8118832462568242	7.90659791526984	6.119167739650619	-4.976773351245658e-07	-5.3345416996036956e-17	-15.537701859729014	-6.261841457254883	-8.561039366211212
1.6	5.158117049119047	1.242130868239391	4.9759374077352225	0.5737643863270931	1.0253172063448337	-0.05261462423096322	51.41640855850817	-7.073829488937659	-11.32322307976957	-33.789932012568556	-0.9811549718354478	-5.098584993459644e-06	4.5466152973670045e-10	-46.25078619510962	8.358047532706731	13.080039240906457	15.3195078742117	21.935865459221734	5.325855426265717e-06	-3.049107262533052e-16	-15.497721228827666	-1.8633911144501782	-17.20102168270765
1.617	5.659444145667001	-2.4346351149669965	-0.22470694358593507	0.5984589285121868	1.0542458577672378	0.0314937854286989	2.182277719202798	0.8807469710299229	-4.406038300480381	-54.540031788589914	5.139719254542001	-3.358433282435916e-06	-8.236353673268339e-10	17.90626661482525	-3.8245786654421448	-5.5597363508948865	-40.60859546598638	-1.690016854376566	-2.6474494679624313e-06	-2.9754761943972235e-16	-16.156058384240744	1.6769717491792568	-0.04663211086180663
1.633	5.870994001277093	-1.865291757689481	1.474846847156698	0.5862100465721581	1.0554094583264453	0.0044172468973720045	19.002100686474463	-2.525884991404242	-9.705177498378585	-57.141903628870864	-1.2872929569895049	-7.399595858129163e-06	1.874259382975008e-10	0.46295863949167515	-0.4084729342793978	-2.388965178704076	-13.647450295183285	6.06502276541075	-1.440027354176965e-06	-4.691928890258451e-16	-16.490799948464474	1.3547378443211129	-4.652613290413472
1.65	5.303691081178207	-5.3504696424247795	-4.186988234628492	0.5765926599578436	1.0455420897384249	0.007107487257724499	0.07856200013187475	-0.5271468303719988	-5.849815090868603	-60.144152032616105	5.441965375345983	-4.58360001050075e-06	6.288382678341471e-10	12.960503665943783	-2.458787670673215	-7.198073107385008	13.585635868230527	-0.8878404546096856	-3.676738159602129e-06	-1.7687769977497818e-15	-16.773465839013916	0.3534438736939183	1.1768745458849548
1.667	5.772485933868853	-0.6330364640028143	2.9339595681471264	0.5912632239646649	1.0401386560396855	-0.01743868342575819	33.232129054415296	-4.805740356552368	-10.381917153453138	-58.64418360516139	-3.2931695161508707	-8.248581033571587e-06	-3.9296537438134326e-10	-19.68800513251221	2.8131878688063425	3.831967561137761	-8.024338426319352	11.082319813023956	2.7559644302521663e-06	-9.989503549010332e-17	-15.413836411428067	0.02227364418357347	-10.157572476337386
1.683	4.454926175686114	4.033138613343487	6.789765542948326	0.5785468543891703	1.0223756595413958	-0.029176834275922832	48.840673589333896	-5.843034990190025	-12.347170698425211	-0.9981500753115427	-0.5552242556519742	-5.958903445994881e-06	-1.2197626223109733e-10	-42.04497108487647	7.360096361859352	9.661568812036911	-17.63717705878609	19.847259909361316	3.928558869847834e-06	-1.2254890782743795e-15	-14.81018173432285	-1.449766954916612	-15.971331291039252
